{"accessors" : [{"bufferView" : 0, "byteOffset" : 0, "componentType" : 5123, "count" : 918, "type" : "SCALAR", "max" : [917], "min" : [0]}, {"bufferView" : 1, "byteOffset" : 0, "componentType" : 5126, "count" : 918, "type" : "VEC3", "max" : [-33.43444061279297, -1.2371364831924438, 73.05681610107422], "min" : [-93.11666870117188, -32.89957046508789, 19.960485458374023], "name" : "POSITION"}, {"bufferView" : 1, "byteOffset" : 12, "componentType" : 5126, "count" : 918, "type" : "VEC3", "max" : [0.9988059997558594, 0.9751856327056885, 0.9721366167068481], "min" : [-0.9991547465324402, -0.9962513446807861, -0.9132437705993652], "name" : "NORMAL"}, {"bufferView" : 1, "byteOffset" : 24, "componentType" : 5126, "count" : 918, "type" : "VEC2", "max" : [0.7441898584365845, -0.10834220796823502], "min" : [0.1043587476015091, -0.5446393489837646], "name" : "TEXCOORD_0"}, {"bufferView" : 0, "byteOffset" : 1836, "componentType" : 5123, "count" : 1263, "type" : "SCALAR", "max" : [1262], "min" : [0]}, {"bufferView" : 2, "byteOffset" : 0, "componentType" : 5126, "count" : 1263, "type" : "VEC3", "max" : [-22.261302947998047, -4.063350677490234, 72.43609619140625], "min" : [-94.91917419433594, -56.97792053222656, -37.88749694824219], "name" : "POSITION"}, {"bufferView" : 2, "byteOffset" : 12, "componentType" : 5126, "count" : 1263, "type" : "VEC3", "max" : [0.9813476800918579, 0.9993718862533569, 0.9669293761253357], "min" : [-0.996573805809021, -0.994341254234314, -0.9991904497146606], "name" : "NORMAL"}, {"bufferView" : 2, "byteOffset" : 24, "componentType" : 5126, "count" : 1263, "type" : "VEC2", "max" : [0.7270476222038269, -0.15382541716098785], "min" : [0.04817387834191322, -0.9075644016265869], "name" : "TEXCOORD_0"}, {"bufferView" : 0, "byteOffset" : 4364, "componentType" : 5123, "count" : 1956, "type" : "SCALAR", "max" : [1955], "min" : [0]}, {"bufferView" : 3, "byteOffset" : 0, "componentType" : 5126, "count" : 1956, "type" : "VEC3", "max" : [-45.821311950683594, -8.718673706054688, 102.33975982666016], "min" : [-68.83927154541016, -34.85911560058594, 70.01703643798828], "name" : "POSITION"}, {"bufferView" : 3, "byteOffset" : 12, "componentType" : 5126, "count" : 1956, "type" : "VEC3", "max" : [0.997907817363739, 0.9980834126472473, 0.9853395223617554], "min" : [-0.9866000413894653, -0.9888936281204224, -0.9978598356246948], "name" : "NORMAL"}, {"bufferView" : 3, "byteOffset" : 24, "componentType" : 5126, "count" : 1956, "type" : "VEC2", "max" : [0.9930661916732788, -0.00390625], "min" : [0.7294486165046692, -0.3968360126018524], "name" : "TEXCOORD_0"}, {"bufferView" : 0, "byteOffset" : 8276, "componentType" : 5123, "count" : 2334, "type" : "SCALAR", "max" : [2333], "min" : [0]}, {"bufferView" : 4, "byteOffset" : 0, "componentType" : 5126, "count" : 2334, "type" : "VEC3", "max" : [21.17970848083496, 20.857942581176758, 5.216919422149658], "min" : [-21.17970848083496, -20.857942581176758, -72.67958068847656], "name" : "POSITION"}, {"bufferView" : 4, "byteOffset" : 12, "componentType" : 5126, "count" : 2334, "type" : "VEC3", "max" : [1.0000044107437134, 1.0000044107437134, 1.0000044107437134], "min" : [-1.0000044107437134, -1.0000044107437134, -1.0000044107437134], "name" : "NORMAL"}, {"bufferView" : 4, "byteOffset" : 24, "componentType" : 5126, "count" : 2334, "type" : "VEC2", "max" : [3.075373649597168, 11.23034954071045], "min" : [-3.075373649597168, -11.230347633361816], "name" : "TEXCOORD_0"}, {"bufferView" : 0, "byteOffset" : 12944, "componentType" : 5123, "count" : 1506, "type" : "SCALAR", "max" : [1505], "min" : [0]}, {"bufferView" : 5, "byteOffset" : 0, "componentType" : 5126, "count" : 1506, "type" : "VEC3", "max" : [-42.614173889160156, -9.338241577148438, 101.91385650634766], "min" : [-97.5423812866211, -48.38945388793945, -70.80701446533203], "name" : "POSITION"}, {"bufferView" : 5, "byteOffset" : 12, "componentType" : 5126, "count" : 1506, "type" : "VEC3", "max" : [0.9916565418243408, 0.9841402173042297, 0.9975413084030151], "min" : [-0.9989157915115356, -0.9955971837043762, -0.9881979823112488], "name" : "NORMAL"}, {"bufferView" : 5, "byteOffset" : 24, "componentType" : 5126, "count" : 1506, "type" : "VEC2", "max" : [0.7780361771583557, -0.00390625], "min" : [0.00390625, -0.9960938096046448], "name" : "TEXCOORD_0"}], "asset" : {"generator" : "Aspose.3D 22.1", "version" : "2.0"}, "buffers" : [{"uri" : "data:application/octet-stream;base64,", "byteLength" : 271244}], "bufferViews" : [{"buffer" : 0, "byteOffset" : 0, "byteLength" : 15956, "target" : 34963}, {"buffer" : 0, "byteOffset" : 15960, "byteLength" : 29376, "byteStride" : 32, "target" : 34962}, {"buffer" : 0, "byteOffset" : 45340, "byteLength" : 40416, "byteStride" : 32, "target" : 34962}, {"buffer" : 0, "byteOffset" : 85760, "byteLength" : 62592, "byteStride" : 32, "target" : 34962}, {"buffer" : 0, "byteOffset" : 148356, "byteLength" : 74688, "byteStride" : 32, "target" : 34962}, {"buffer" : 0, "byteOffset" : 223048, "byteLength" : 48192, "byteStride" : 32, "target" : 34962}], "materials" : [{"name" : "", "pbrMetallicRoughness" : {"baseColorFactor" : [0, 0, 0, 1], "metallicFactor" : 0, "roughnessFactor" : 0}, "emissiveFactor" : [0, 0, 0], "alphaMode" : "OPAQUE", "doubleSided" : false}, {"name" : "", "pbrMetallicRoughness" : {"baseColorFactor" : [0, 0, 0, 1], "metallicFactor" : 0, "roughnessFactor" : 0}, "emissiveFactor" : [0, 0, 0], "alphaMode" : "OPAQUE", "doubleSided" : false}, {"name" : "", "pbrMetallicRoughness" : {"baseColorFactor" : [0, 0, 0, 1], "metallicFactor" : 0, "roughnessFactor" : 0}, "emissiveFactor" : [0, 0, 0], "alphaMode" : "OPAQUE", "doubleSided" : false}, {"name" : "", "pbrMetallicRoughness" : {"baseColorFactor" : [0, 0, 0, 1], "metallicFactor" : 0, "roughnessFactor" : 0}, "emissiveFactor" : [0, 0, 0], "alphaMode" : "OPAQUE", "doubleSided" : false}, {"name" : "", "pbrMetallicRoughness" : {"baseColorFactor" : [0, 0, 0, 1], "metallicFactor" : 0, "roughnessFactor" : 0}, "emissiveFactor" : [0, 0, 0], "alphaMode" : "OPAQUE", "doubleSided" : false}], "meshes" : [{"primitives" : [{"attributes" : {"POSITION" : 1, "NORMAL" : 2, "TEXCOORD_0" : 3}, "indices" : 0, "material" : 0, "mode" : 4}], "name" : ""}, {"primitives" : [{"attributes" : {"POSITION" : 5, "NORMAL" : 6, "TEXCOORD_0" : 7}, "indices" : 4, "material" : 1, "mode" : 4}], "name" : ""}, {"primitives" : [{"attributes" : {"POSITION" : 9, "NORMAL" : 10, "TEXCOORD_0" : 11}, "indices" : 8, "material" : 2, "mode" : 4}], "name" : ""}, {"primitives" : [{"attributes" : {"POSITION" : 13, "NORMAL" : 14, "TEXCOORD_0" : 15}, "indices" : 12, "material" : 3, "mode" : 4}], "name" : ""}, {"primitives" : [{"attributes" : {"POSITION" : 17, "NORMAL" : 18, "TEXCOORD_0" : 19}, "indices" : 16, "material" : 4, "mode" : 4}], "name" : ""}], "nodes" : [{"matrix" : [0.9999999999999847, -2.6469779601696886E-23, 1.7484555314694907E-07, 0, 1.7484555314694907E-07, 0, -0.9999999999999848, 0, 0, 1, 0, 0, 57.6587756505393, 71.50262451171875, -8.09267331854343, 1], "mesh" : 0, "name" : "GirlSit_03"}, {"matrix" : [0.9999999999999847, -2.6469779601696886E-23, 1.7484555314694907E-07, 0, 1.7484555314694907E-07, 0, -0.9999999999999848, 0, 0, 1, 0, 0, 57.6587756505393, 71.50262451171875, -8.09267331854343, 1], "mesh" : 1, "name" : "GirlSit_00"}, {"matrix" : [0.9999999999999847, -2.6469779601696886E-23, 1.7484555314694907E-07, 0, 1.7484555314694907E-07, 0, -0.9999999999999848, 0, 0, 1, 0, 0, 57.6587756505393, 71.50262451171875, -8.09267331854343, 1], "mesh" : 2, "name" : "GirlSit_01"}, {"matrix" : [0.9999999999999847, -2.6469779601696886E-23, 1.7484555314694907E-07, 0, 1.7484555314694907E-07, 0, -0.9999999999999848, 0, 0, 1, 0, 0, 1.9331836700439453, 72.67958068847656, 7.892358779907227, 1], "mesh" : 3, "name" : "GirlSit_Chair"}, {"matrix" : [0.9999999999999847, -2.6469779601696886E-23, 1.7484555314694907E-07, 0, 1.7484555314694907E-07, 0, -0.9999999999999848, 0, 0, 1, 0, 0, 57.6587756505393, 71.50262451171875, -8.09267331854343, 1], "mesh" : 4, "name" : "GirlSit_02"}], "scene" : 0, "scenes" : [{"nodes" : [0, 1, 2, 3, 4]}]}