{"accessors" : [{"bufferView" : 0, "byteOffset" : 0, "componentType" : 5123, "count" : 330, "type" : "SCALAR", "max" : [329], "min" : [0]}, {"bufferView" : 1, "byteOffset" : 0, "componentType" : 5126, "count" : 330, "type" : "VEC3", "max" : [1, 1, 1.6909425258636475], "min" : [-1, -1, 0], "name" : "POSITION"}, {"bufferView" : 1, "byteOffset" : 12, "componentType" : 5126, "count" : 330, "type" : "VEC3", "max" : [0.707109808921814, 1.0000044107437134, 0.9997380971908569], "min" : [0, -1.0000044107437134, 0], "name" : "NORMAL"}, {"bufferView" : 1, "byteOffset" : 24, "componentType" : 5126, "count" : 330, "type" : "VEC2", "max" : [1, -0], "min" : [0, -1], "name" : "TEXCOORD_0"}, {"bufferView" : 0, "byteOffset" : 660, "componentType" : 5123, "count" : 465, "type" : "SCALAR", "max" : [464], "min" : [0]}, {"bufferView" : 2, "byteOffset" : 0, "componentType" : 5126, "count" : 465, "type" : "VEC3", "max" : [0.025101900100708008, 1.584834337234497, 0.1554628610610962], "min" : [-2.1643946170806885, -0.00013253092765808105, 0.04354727268218994], "name" : "POSITION"}, {"bufferView" : 2, "byteOffset" : 12, "componentType" : 5126, "count" : 465, "type" : "VEC3", "max" : [1.0000044107437134, 1.0000044107437134, 0], "min" : [-1.0000044107437134, -1.0000044107437134, -1.0000044107437134], "name" : "NORMAL"}, {"bufferView" : 2, "byteOffset" : 24, "componentType" : 5126, "count" : 465, "type" : "VEC2", "max" : [0, -0], "min" : [0, -0], "name" : "TEXCOORD_0"}, {"bufferView" : 0, "byteOffset" : 1592, "componentType" : 5123, "count" : 12, "type" : "SCALAR", "max" : [11], "min" : [0]}, {"bufferView" : 3, "byteOffset" : 0, "componentType" : 5126, "count" : 12, "type" : "VEC3", "max" : [-0.052945852279663086, 1.517935037612915, 0.043551087379455566], "min" : [-2.0863468647003174, 0.08982613682746887, 0.04354727268218994], "name" : "POSITION"}, {"bufferView" : 3, "byteOffset" : 12, "componentType" : 5126, "count" : 12, "type" : "VEC3", "max" : [0, 0, -1.0000044107437134], "min" : [0, 0, -1.0000044107437134], "name" : "NORMAL"}, {"bufferView" : 3, "byteOffset" : 24, "componentType" : 5126, "count" : 12, "type" : "VEC2", "max" : [1, -0.06299114972352982], "min" : [0, -1], "name" : "TEXCOORD_0"}, {"bufferView" : 0, "byteOffset" : 1616, "componentType" : 5123, "count" : 1014, "type" : "SCALAR", "max" : [1013], "min" : [0]}, {"bufferView" : 4, "byteOffset" : 0, "componentType" : 5126, "count" : 1014, "type" : "VEC3", "max" : [-0.875354528427124, 1.0486761331558228, 2.0421884059906006], "min" : [-1.2169091701507568, 0.6034326553344727, 1.8518273830413818], "name" : "POSITION"}, {"bufferView" : 4, "byteOffset" : 12, "componentType" : 5126, "count" : 1014, "type" : "VEC3", "max" : [0.9999561309814453, 1.0000044107437134, 0], "min" : [-0.9999374747276306, -0.999862015247345, 0], "name" : "NORMAL"}, {"bufferView" : 4, "byteOffset" : 24, "componentType" : 5126, "count" : 1014, "type" : "VEC2", "max" : [0, -0], "min" : [0, -0], "name" : "TEXCOORD_0"}, {"bufferView" : 0, "byteOffset" : 3644, "componentType" : 5123, "count" : 462, "type" : "SCALAR", "max" : [461], "min" : [0]}, {"bufferView" : 5, "byteOffset" : 0, "componentType" : 5126, "count" : 462, "type" : "VEC3", "max" : [-0.875354528427124, 1.0486761331558228, 1.8518311977386475], "min" : [-1.2169091701507568, 0.6034326553344727, 1.8518273830413818], "name" : "POSITION"}, {"bufferView" : 5, "byteOffset" : 12, "componentType" : 5126, "count" : 462, "type" : "VEC3", "max" : [2.1477098925970495E-06, 0, 1.0000044107437134], "min" : [-1.117496140068397E-06, -1.1929804713872727E-05, 1.0000044107437134], "name" : "NORMAL"}, {"bufferView" : 5, "byteOffset" : 24, "componentType" : 5126, "count" : 462, "type" : "VEC2", "max" : [0, -0], "min" : [0, -0], "name" : "TEXCOORD_0"}, {"bufferView" : 0, "byteOffset" : 4568, "componentType" : 5123, "count" : 1272, "type" : "SCALAR", "max" : [1271], "min" : [0]}, {"bufferView" : 6, "byteOffset" : 0, "componentType" : 5126, "count" : 1272, "type" : "VEC3", "max" : [0.025101900100708008, 1.584834337234497, 2.0421884059906006], "min" : [-2.1643946170806885, -0.00013253092765808105, 0.15545523166656494], "name" : "POSITION"}, {"bufferView" : 6, "byteOffset" : 12, "componentType" : 5126, "count" : 1272, "type" : "VEC3", "max" : [1.0000044107437134, 1.0000044107437134, 1.0000044107437134], "min" : [-1.0000044107437134, -1.0000044107437134, 0], "name" : "NORMAL"}, {"bufferView" : 6, "byteOffset" : 24, "componentType" : 5126, "count" : 1272, "type" : "VEC2", "max" : [0, -0], "min" : [0, -0], "name" : "TEXCOORD_0"}, {"bufferView" : 0, "byteOffset" : 7112, "componentType" : 5123, "count" : 2952, "type" : "SCALAR", "max" : [2951], "min" : [0]}, {"bufferView" : 7, "byteOffset" : 0, "componentType" : 5126, "count" : 2952, "type" : "VEC3", "max" : [-1.0035630464553833, 0.05318382382392883, 0.03275656700134277], "min" : [-1.2073023319244385, 0.022634536027908325, 0.020217061042785645], "name" : "POSITION"}, {"bufferView" : 7, "byteOffset" : 12, "componentType" : 5126, "count" : 2952, "type" : "VEC3", "max" : [0.03643263131380081, 0.45338383316993713, -0.7715201377868652], "min" : [-0.15430401265621185, -0.6172160506248474, -0.9430277347564697], "name" : "NORMAL"}, {"bufferView" : 7, "byteOffset" : 24, "componentType" : 5126, "count" : 2952, "type" : "VEC2", "max" : [1, -0], "min" : [0, -0], "name" : "TEXCOORD_0"}, {"bufferView" : 0, "byteOffset" : 13016, "componentType" : 5123, "count" : 450, "type" : "SCALAR", "max" : [449], "min" : [0]}, {"bufferView" : 8, "byteOffset" : 0, "componentType" : 5126, "count" : 450, "type" : "VEC3", "max" : [-1.0710234642028809, 1.572031021118164, 0.03466200828552246], "min" : [-1.1075162887573242, 1.5319806337356567, -0.004329562187194824], "name" : "POSITION"}, {"bufferView" : 8, "byteOffset" : 12, "componentType" : 5126, "count" : 450, "type" : "VEC3", "max" : [1.0000044107437134, 0.9976395964622498, 6.726354331476614E-05], "min" : [-1.0000044107437134, -0.9976385235786438, -0.9891912341117859], "name" : "NORMAL"}, {"bufferView" : 8, "byteOffset" : 24, "componentType" : 5126, "count" : 450, "type" : "VEC2", "max" : [0.9926754236221313, -0], "min" : [0, -0.9956114292144775], "name" : "TEXCOORD_0"}, {"bufferView" : 0, "byteOffset" : 13916, "componentType" : 5123, "count" : 150, "type" : "SCALAR", "max" : [149], "min" : [0]}, {"bufferView" : 9, "byteOffset" : 0, "componentType" : 5126, "count" : 150, "type" : "VEC3", "max" : [-1.073143720626831, 1.5697133541107178, 0.03431832790374756], "min" : [-1.1054127216339111, 1.534300446510315, 0.02906644344329834], "name" : "POSITION"}, {"bufferView" : 9, "byteOffset" : 12, "componentType" : 5126, "count" : 150, "type" : "VEC3", "max" : [0.0002886226575355977, -0.14641328155994415, -0.9891435503959656], "min" : [-0.00034743326250463724, -0.14698250591754913, -0.9892279505729675], "name" : "NORMAL"}, {"bufferView" : 9, "byteOffset" : 24, "componentType" : 5126, "count" : 150, "type" : "VEC2", "max" : [0, -0], "min" : [0, -0], "name" : "TEXCOORD_0"}, {"bufferView" : 0, "byteOffset" : 14216, "componentType" : 5123, "count" : 150, "type" : "SCALAR", "max" : [149], "min" : [0]}, {"bufferView" : 10, "byteOffset" : 0, "componentType" : 5126, "count" : 150, "type" : "VEC3", "max" : [-1.0822463035583496, 1.5597624778747559, 0.03284573554992676], "min" : [-1.0963817834854126, 1.5442498922348022, 0.026299595832824707], "name" : "POSITION"}, {"bufferView" : 10, "byteOffset" : 12, "componentType" : 5126, "count" : 150, "type" : "VEC3", "max" : [0.9472878575325012, 0.9312408566474915, -0.30969780683517456], "min" : [-0.9489700198173523, -0.945041835308075, -0.3580527603626251], "name" : "NORMAL"}, {"bufferView" : 10, "byteOffset" : 24, "componentType" : 5126, "count" : 150, "type" : "VEC2", "max" : [0, -0], "min" : [0, -0], "name" : "TEXCOORD_0"}, {"bufferView" : 0, "byteOffset" : 14516, "componentType" : 5123, "count" : 6738, "type" : "SCALAR", "max" : [6737], "min" : [0]}, {"bufferView" : 11, "byteOffset" : 0, "componentType" : 5126, "count" : 6738, "type" : "VEC3", "max" : [1.1894961595535278, 0.5849665403366089, 1], "min" : [-0.9999999403953552, -1, -1.301226258277893], "name" : "POSITION"}, {"bufferView" : 11, "byteOffset" : 12, "componentType" : 5126, "count" : 6738, "type" : "VEC3", "max" : [1.0000044107437134, 1.0000044107437134, 1.0000044107437134], "min" : [-1.0000044107437134, -1.0000044107437134, -1.0000044107437134], "name" : "NORMAL"}, {"bufferView" : 11, "byteOffset" : 24, "componentType" : 5126, "count" : 6738, "type" : "VEC2", "max" : [1, -0], "min" : [0, -1], "name" : "TEXCOORD_0"}, {"bufferView" : 0, "byteOffset" : 27992, "componentType" : 5123, "count" : 234, "type" : "SCALAR", "max" : [233], "min" : [0]}, {"bufferView" : 12, "byteOffset" : 0, "componentType" : 5126, "count" : 234, "type" : "VEC3", "max" : [0.892166256904602, 0.47707581520080566, 1], "min" : [-0.7020736336708069, -0.9968984127044678, -0.24135082960128784], "name" : "POSITION"}, {"bufferView" : 12, "byteOffset" : 12, "componentType" : 5126, "count" : 234, "type" : "VEC3", "max" : [1.0000044107437134, 1.0000044107437134, 1.0000044107437134], "min" : [-1.0000044107437134, -1.0000044107437134, -0.16978515684604645], "name" : "NORMAL"}, {"bufferView" : 12, "byteOffset" : 24, "componentType" : 5126, "count" : 234, "type" : "VEC2", "max" : [0, -0], "min" : [0, -0], "name" : "TEXCOORD_0"}, {"bufferView" : 0, "byteOffset" : 28460, "componentType" : 5123, "count" : 39, "type" : "SCALAR", "max" : [38], "min" : [0]}, {"bufferView" : 13, "byteOffset" : 0, "componentType" : 5126, "count" : 39, "type" : "VEC3", "max" : [1.1722242832183838, 0.47445619106292725, 1.009231448173523], "min" : [-0.9828718304634094, -0.7921878695487976, 0.9942445158958435], "name" : "POSITION"}, {"bufferView" : 13, "byteOffset" : 12, "componentType" : 5126, "count" : 39, "type" : "VEC3", "max" : [0, 0, 1.0000044107437134], "min" : [-6.597003903152654E-07, 0, 1.0000042915344238], "name" : "NORMAL"}, {"bufferView" : 13, "byteOffset" : 24, "componentType" : 5126, "count" : 39, "type" : "VEC2", "max" : [0, -0], "min" : [0, -0], "name" : "TEXCOORD_0"}, {"bufferView" : 0, "byteOffset" : 28540, "componentType" : 5123, "count" : 2754, "type" : "SCALAR", "max" : [2753], "min" : [0]}, {"bufferView" : 14, "byteOffset" : 0, "componentType" : 5126, "count" : 2754, "type" : "VEC3", "max" : [0.9710553884506226, -0.09914848208427429, 1.213829517364502], "min" : [-0.7795155644416809, -0.7289608716964722, 0.45183899998664856], "name" : "POSITION"}, {"bufferView" : 14, "byteOffset" : 12, "componentType" : 5126, "count" : 2754, "type" : "VEC3", "max" : [8.508412179253355E-07, 1.0000044107437134, 1.0000044107437134], "min" : [-1.3797430256090593E-06, -0.9999890327453613, 0], "name" : "NORMAL"}, {"bufferView" : 14, "byteOffset" : 24, "componentType" : 5126, "count" : 2754, "type" : "VEC2", "max" : [0.9821575284004211, -0.2984236776828766], "min" : [0.01789690926671028, -0.6166938543319702], "name" : "TEXCOORD_0"}, {"bufferView" : 0, "byteOffset" : 34048, "componentType" : 5123, "count" : 8970, "type" : "SCALAR", "max" : [8969], "min" : [0]}, {"bufferView" : 15, "byteOffset" : 0, "componentType" : 5126, "count" : 8970, "type" : "VEC3", "max" : [0.9710553884506226, -0.09914848208427429, 1.213829517364502], "min" : [-0.7795155644416809, -0.7289608716964722, 0.4518389105796814], "name" : "POSITION"}, {"bufferView" : 15, "byteOffset" : 12, "componentType" : 5126, "count" : 8970, "type" : "VEC3", "max" : [1.0000044107437134, 1.0000044107437134, 1.0000044107437134], "min" : [-1.0000044107437134, -1.0000044107437134, -1.0000044107437134], "name" : "NORMAL"}, {"bufferView" : 15, "byteOffset" : 24, "componentType" : 5126, "count" : 8970, "type" : "VEC2", "max" : [0.9840182662010193, -0.2984236776828766], "min" : [0.012640787288546562, -0.6148419380187988], "name" : "TEXCOORD_0"}, {"bufferView" : 0, "byteOffset" : 51988, "componentType" : 5123, "count" : 237, "type" : "SCALAR", "max" : [236], "min" : [0]}, {"bufferView" : 16, "byteOffset" : 0, "componentType" : 5126, "count" : 237, "type" : "VEC3", "max" : [0.9643660187721252, -0.7380850911140442, 0.7491531372070312], "min" : [-0.7722110748291016, -0.8147937655448914, 0.7062588334083557], "name" : "POSITION"}, {"bufferView" : 16, "byteOffset" : 12, "componentType" : 5126, "count" : 237, "type" : "VEC3", "max" : [1.0000044107437134, 1.0000044107437134, 1.0000044107437134], "min" : [-0.999996542930603, -1.0000044107437134, -1.0000044107437134], "name" : "NORMAL"}, {"bufferView" : 16, "byteOffset" : 24, "componentType" : 5126, "count" : 237, "type" : "VEC2", "max" : [0.9942260980606079, -0.06952673941850662], "min" : [0.0017503607086837292, -0.9205793738365173], "name" : "TEXCOORD_0"}, {"bufferView" : 0, "byteOffset" : 52464, "componentType" : 5123, "count" : 2064, "type" : "SCALAR", "max" : [2063], "min" : [0]}, {"bufferView" : 17, "byteOffset" : 0, "componentType" : 5126, "count" : 2064, "type" : "VEC3", "max" : [1.2034506797790527, -0.7621485590934753, 0.6472738981246948], "min" : [-0.9946025609970093, -0.9199271202087402, -0.3363388776779175], "name" : "POSITION"}, {"bufferView" : 17, "byteOffset" : 12, "componentType" : 5126, "count" : 2064, "type" : "VEC3", "max" : [1.0000044107437134, 1.0000044107437134, 1.0000044107437134], "min" : [-1.0000044107437134, -1.0000044107437134, -1.0000044107437134], "name" : "NORMAL"}, {"bufferView" : 17, "byteOffset" : 24, "componentType" : 5126, "count" : 2064, "type" : "VEC2", "max" : [0.875, -0.0833333283662796], "min" : [0.125, -1], "name" : "TEXCOORD_0"}], "asset" : {"generator" : "Aspose.3D 22.1", "version" : "2.0"}, "buffers" : [{"uri" : "data:application/octet-stream;base64,", "byteLength" : 962040}], "bufferViews" : [{"buffer" : 0, "byteOffset" : 0, "byteLength" : 56592, "target" : 34963}, {"buffer" : 0, "byteOffset" : 56596, "byteLength" : 10560, "byteStride" : 32, "target" : 34962}, {"buffer" : 0, "byteOffset" : 67160, "byteLength" : 14880, "byteStride" : 32, "target" : 34962}, {"buffer" : 0, "byteOffset" : 82044, "byteLength" : 384, "byteStride" : 32, "target" : 34962}, {"buffer" : 0, "byteOffset" : 82432, "byteLength" : 32448, "byteStride" : 32, "target" : 34962}, {"buffer" : 0, "byteOffset" : 114884, "byteLength" : 14784, "byteStride" : 32, "target" : 34962}, {"buffer" : 0, "byteOffset" : 129672, "byteLength" : 40704, "byteStride" : 32, "target" : 34962}, {"buffer" : 0, "byteOffset" : 170380, "byteLength" : 94464, "byteStride" : 32, "target" : 34962}, {"buffer" : 0, "byteOffset" : 264848, "byteLength" : 14400, "byteStride" : 32, "target" : 34962}, {"buffer" : 0, "byteOffset" : 279252, "byteLength" : 4800, "byteStride" : 32, "target" : 34962}, {"buffer" : 0, "byteOffset" : 284056, "byteLength" : 4800, "byteStride" : 32, "target" : 34962}, {"buffer" : 0, "byteOffset" : 288860, "byteLength" : 215616, "byteStride" : 32, "target" : 34962}, {"buffer" : 0, "byteOffset" : 504480, "byteLength" : 7488, "byteStride" : 32, "target" : 34962}, {"buffer" : 0, "byteOffset" : 511972, "byteLength" : 1248, "byteStride" : 32, "target" : 34962}, {"buffer" : 0, "byteOffset" : 513224, "byteLength" : 88128, "byteStride" : 32, "target" : 34962}, {"buffer" : 0, "byteOffset" : 601356, "byteLength" : 287040, "byteStride" : 32, "target" : 34962}, {"buffer" : 0, "byteOffset" : 888400, "byteLength" : 7584, "byteStride" : 32, "target" : 34962}, {"buffer" : 0, "byteOffset" : 895988, "byteLength" : 66048, "byteStride" : 32, "target" : 34962}], "cameras" : [{"perspective" : {"aspectRatio" : 1.777777777777778, "yfov" : 1.1386263370513916, "zfar" : 10000, "znear" : 10.000000149011612}, "type" : "perspective", "name" : "Camera.001"}], "materials" : [{"name" : "", "pbrMetallicRoughness" : {"baseColorFactor" : [1, 1, 1, 1], "metallicFactor" : 0, "roughnessFactor" : 0}, "emissiveFactor" : [0, 0, 0], "alphaMode" : "OPAQUE", "doubleSided" : false}, {"name" : "", "pbrMetallicRoughness" : {"baseColorFactor" : [0.800000011920929, 0.800000011920929, 0.800000011920929, 1], "metallicFactor" : 0, "roughnessFactor" : 0}, "emissiveFactor" : [0, 0, 0], "alphaMode" : "OPAQUE", "doubleSided" : false}, {"name" : "", "pbrMetallicRoughness" : {"baseColorFactor" : [0.800000011920929, 0.800000011920929, 0.800000011920929, 1], "metallicFactor" : 0, "roughnessFactor" : 0}, "emissiveFactor" : [0, 0, 0], "alphaMode" : "OPAQUE", "doubleSided" : false}, {"name" : "", "pbrMetallicRoughness" : {"baseColorFactor" : [0.800000011920929, 0.800000011920929, 0.800000011920929, 1], "metallicFactor" : 0, "roughnessFactor" : 0}, "emissiveFactor" : [0, 0, 0], "alphaMode" : "OPAQUE", "doubleSided" : false}, {"name" : "", "pbrMetallicRoughness" : {"baseColorFactor" : [0.800000011920929, 0.800000011920929, 0.800000011920929, 1], "metallicFactor" : 0, "roughnessFactor" : 0}, "emissiveFactor" : [0, 0, 0], "alphaMode" : "OPAQUE", "doubleSided" : false}, {"name" : "", "pbrMetallicRoughness" : {"baseColorFactor" : [0.16259019076824188, 0.16259028017520905, 0.18299999833106995, 1], "metallicFactor" : 0, "roughnessFactor" : 0}, "emissiveFactor" : [0, 0, 0], "alphaMode" : "OPAQUE", "doubleSided" : false}, {"name" : "", "pbrMetallicRoughness" : {"baseColorFactor" : [0.1531716138124466, 0.1531716138124466, 0.1531716138124466, 1], "metallicFactor" : 0, "roughnessFactor" : 0}, "emissiveFactor" : [0, 0, 0], "alphaMode" : "OPAQUE", "doubleSided" : false}, {"name" : "", "pbrMetallicRoughness" : {"baseColorFactor" : [0.05543861538171768, 0.05543861538171768, 0.05543861538171768, 1], "metallicFactor" : 0, "roughnessFactor" : 0}, "emissiveFactor" : [0, 0, 0], "alphaMode" : "OPAQUE", "doubleSided" : false}, {"name" : "", "pbrMetallicRoughness" : {"baseColorFactor" : [0.008382851257920265, 0.008382851257920265, 0.008382851257920265, 1], "metallicFactor" : 0, "roughnessFactor" : 0}, "emissiveFactor" : [0, 0, 0], "alphaMode" : "OPAQUE", "doubleSided" : false}, {"name" : "", "pbrMetallicRoughness" : {"baseColorFactor" : [0.0078100585378706455, 0.011823827400803566, 0.006876745726913214, 1], "metallicFactor" : 0, "roughnessFactor" : 0}, "emissiveFactor" : [0, 0, 0], "alphaMode" : "OPAQUE", "doubleSided" : false}, {"name" : "", "pbrMetallicRoughness" : {"baseColorFactor" : [0.16259019076824188, 0.16259028017520905, 0.18299999833106995, 1], "metallicFactor" : 0, "roughnessFactor" : 0}, "emissiveFactor" : [0, 0, 0], "alphaMode" : "OPAQUE", "doubleSided" : false}, {"name" : "", "pbrMetallicRoughness" : {"baseColorFactor" : [0.800000011920929, 0.800000011920929, 0.800000011920929, 1], "metallicFactor" : 0, "roughnessFactor" : 0}, "emissiveFactor" : [0, 0, 0], "alphaMode" : "OPAQUE", "doubleSided" : false}, {"name" : "", "pbrMetallicRoughness" : {"baseColorFactor" : [0.14292751252651215, 0.14292751252651215, 0.16616909205913544, 1], "metallicFactor" : 0, "roughnessFactor" : 0}, "emissiveFactor" : [0, 0, 0], "alphaMode" : "OPAQUE", "doubleSided" : false}, {"name" : "", "pbrMetallicRoughness" : {"baseColorFactor" : [0.800000011920929, 0.800000011920929, 0.800000011920929, 1], "metallicFactor" : 0, "roughnessFactor" : 0}, "emissiveFactor" : [0, 0, 0], "alphaMode" : "OPAQUE", "doubleSided" : false}, {"name" : "", "pbrMetallicRoughness" : {"baseColorFactor" : [0.800000011920929, 0.800000011920929, 0.800000011920929, 1], "metallicFactor" : 0, "roughnessFactor" : 0}, "emissiveFactor" : [0, 0, 0], "alphaMode" : "OPAQUE", "doubleSided" : false}, {"name" : "", "pbrMetallicRoughness" : {"baseColorFactor" : [0.800000011920929, 0.800000011920929, 0.800000011920929, 1], "metallicFactor" : 0, "roughnessFactor" : 0}, "emissiveFactor" : [0, 0, 0], "alphaMode" : "OPAQUE", "doubleSided" : false}, {"name" : "", "pbrMetallicRoughness" : {"baseColorFactor" : [0.05780279263854027, 0.05780279263854027, 0.05780279263854027, 1], "metallicFactor" : 0, "roughnessFactor" : 0}, "emissiveFactor" : [0, 0, 0], "alphaMode" : "OPAQUE", "doubleSided" : false}], "meshes" : [{"primitives" : [{"attributes" : {"POSITION" : 1, "NORMAL" : 2, "TEXCOORD_0" : 3}, "indices" : 0, "material" : 0, "mode" : 4}], "name" : "Plane"}, {"primitives" : [{"attributes" : {"POSITION" : 5, "NORMAL" : 6, "TEXCOORD_0" : 7}, "indices" : 4, "material" : 1, "mode" : 4}, {"attributes" : {"POSITION" : 9, "NORMAL" : 10, "TEXCOORD_0" : 11}, "indices" : 8, "material" : 2, "mode" : 4}, {"attributes" : {"POSITION" : 13, "NORMAL" : 14, "TEXCOORD_0" : 15}, "indices" : 12, "material" : 3, "mode" : 4}, {"attributes" : {"POSITION" : 17, "NORMAL" : 18, "TEXCOORD_0" : 19}, "indices" : 16, "material" : 4, "mode" : 4}, {"attributes" : {"POSITION" : 21, "NORMAL" : 22, "TEXCOORD_0" : 23}, "indices" : 20, "material" : 5, "mode" : 4}, {"attributes" : {"POSITION" : 25, "NORMAL" : 26, "TEXCOORD_0" : 27}, "indices" : 24, "material" : 6, "mode" : 4}, {"attributes" : {"POSITION" : 29, "NORMAL" : 30, "TEXCOORD_0" : 31}, "indices" : 28, "material" : 7, "mode" : 4}, {"attributes" : {"POSITION" : 33, "NORMAL" : 34, "TEXCOORD_0" : 35}, "indices" : 32, "material" : 8, "mode" : 4}, {"attributes" : {"POSITION" : 37, "NORMAL" : 38, "TEXCOORD_0" : 39}, "indices" : 36, "material" : 9, "mode" : 4}], "name" : "Cube.004"}, {"primitives" : [{"attributes" : {"POSITION" : 41, "NORMAL" : 42, "TEXCOORD_0" : 43}, "indices" : 40, "material" : 10, "mode" : 4}, {"attributes" : {"POSITION" : 45, "NORMAL" : 46, "TEXCOORD_0" : 47}, "indices" : 44, "material" : 11, "mode" : 4}, {"attributes" : {"POSITION" : 49, "NORMAL" : 50, "TEXCOORD_0" : 51}, "indices" : 48, "material" : 12, "mode" : 4}, {"attributes" : {"POSITION" : 53, "NORMAL" : 54, "TEXCOORD_0" : 55}, "indices" : 52, "material" : 13, "mode" : 4}, {"attributes" : {"POSITION" : 57, "NORMAL" : 58, "TEXCOORD_0" : 59}, "indices" : 56, "material" : 14, "mode" : 4}, {"attributes" : {"POSITION" : 61, "NORMAL" : 62, "TEXCOORD_0" : 63}, "indices" : 60, "material" : 15, "mode" : 4}, {"attributes" : {"POSITION" : 65, "NORMAL" : 66, "TEXCOORD_0" : 67}, "indices" : 64, "material" : 16, "mode" : 4}], "name" : "Cube.005"}], "nodes" : [{"matrix" : [-1697.9413802089175, 0, -3117.7786639281703, 0, -3117.778663928161, 0.00026802869381613797, 1697.9413802089107, 0, 0.00023538574059888773, 3550.147705078116, -0.00012819100885946096, 0, 3.480036497116089, 64.11466979980469, -3.2886340618133545, 1], "mesh" : 0, "name" : "Plane"}, {"camera" : 0, "matrix" : [71.53268941045228, -13.005883553359975, 68.65800272877306, 0, 6.257439301982677, 99.05017829657704, 12.243636420537083, 0, -69.59826721327025, -4.4619695665412245, 71.66709167042772, 0, -504.84222412109375, 204.3006591796875, -497.6639404296875, 1], "name" : "Camera.001"}, {"matrix" : [157.24432373046875, 0, 0, 0, 0, 142.7847048237606, 12.40301911137059, 0, 0, -0.2623923627460487, 3.0206851836869864, 0, 76.17713165283203, 73.1795654296875, -43.45798873901367, 1], "mesh" : 1, "name" : "macBook_TopPart"}, {"matrix" : [156.97291564941406, 0, 0, 0, 0, -2.3284705269183863E-05, -142.9205017089825, 0, 0, 3.2414958477019837, -5.281067064731713E-07, 0, -107.1210708618164, 70.1550521850586, -186.27529907226562, 1], "mesh" : 2, "name" : "macBook_BottomPart"}], "scene" : 0, "scenes" : [{"nodes" : [0, 1, 2, 3]}]}