{"accessors" : [{"bufferView" : 0, "byteOffset" : 0, "componentType" : 5123, "count" : 9357, "type" : "SCALAR", "max" : [7811], "min" : [0]}, {"bufferView" : 1, "byteOffset" : 0, "componentType" : 5126, "count" : 7812, "type" : "VEC3", "max" : [0.7093658447265625, 34.878177642822266, 8.893891334533691], "min" : [-15.45368766784668, -3.5762786865234375E-07, -12.145209312438965], "name" : "POSITION"}, {"bufferView" : 1, "byteOffset" : 12, "componentType" : 5126, "count" : 7812, "type" : "VEC3", "max" : [0.9994902610778809, 0.999901294708252, 0.9973854422569275], "min" : [-0.9977521300315857, -0.9998208284378052, -0.9978137016296387], "name" : "NORMAL"}], "asset" : {"generator" : "Aspose.3D 22.1", "version" : "2.0"}, "buffers" : [{"uri" : "data:application/octet-stream;base64,", "byteLength" : 243292}], "bufferViews" : [{"buffer" : 0, "byteOffset" : 0, "byteLength" : 18716, "target" : 34963}, {"buffer" : 0, "byteOffset" : 18720, "byteLength" : 224568, "byteStride" : 24, "target" : 34962}], "meshes" : [{"primitives" : [{"attributes" : {"POSITION" : 1, "NORMAL" : 2}, "indices" : 0, "mode" : 4}], "name" : ""}], "nodes" : [{"mesh" : 0, "name" : "CMan0001-Se"}], "scene" : 0, "scenes" : [{"nodes" : [0]}]}