{"accessors" : [{"bufferView" : 0, "byteOffset" : 0, "componentType" : 5123, "count" : 1884, "type" : "SCALAR", "max" : [1883], "min" : [0]}, {"bufferView" : 1, "byteOffset" : 0, "componentType" : 5126, "count" : 1884, "type" : "VEC3", "max" : [4.398713111877441, 4.482629776000977, 12.620158195495605], "min" : [-3.43133544921875, -20.735557556152344, -11.685526847839355], "name" : "POSITION"}, {"bufferView" : 1, "byteOffset" : 12, "componentType" : 5126, "count" : 1884, "type" : "VEC3", "max" : [0.9857203960418701, 1.0000044107437134, 1.0000044107437134], "min" : [-1.0000044107437134, -1.0000044107437134, -1.0000044107437134], "name" : "NORMAL"}, {"bufferView" : 1, "byteOffset" : 24, "componentType" : 5126, "count" : 1884, "type" : "VEC2", "max" : [0.9861247539520264, -0.0005000000237487257], "min" : [0.0005000000237487257, -0.999500036239624], "name" : "TEXCOORD_0"}, {"bufferView" : 0, "byteOffset" : 3768, "componentType" : 5123, "count" : 108, "type" : "SCALAR", "max" : [107], "min" : [0]}, {"bufferView" : 2, "byteOffset" : 0, "componentType" : 5126, "count" : 108, "type" : "VEC3", "max" : [69.7782974243164, 25.025283813476562, 2.856191635131836], "min" : [-69.7782974243164, -25.025283813476562, -7.349061012268066], "name" : "POSITION"}, {"bufferView" : 2, "byteOffset" : 12, "componentType" : 5126, "count" : 108, "type" : "VEC3", "max" : [1.0000044107437134, 0.9991470575332642, 1.0000044107437134], "min" : [-1.0000044107437134, -1.0000044107437134, -0.9986768960952759], "name" : "NORMAL"}, {"bufferView" : 2, "byteOffset" : 24, "componentType" : 5126, "count" : 108, "type" : "VEC2", "max" : [0.9994999766349792, -0.0005000000237487257], "min" : [0.0005000000237487257, -0.9936472773551941], "name" : "TEXCOORD_0"}, {"bufferView" : 0, "byteOffset" : 3984, "componentType" : 5123, "count" : 1680, "type" : "SCALAR", "max" : [1679], "min" : [0]}, {"bufferView" : 3, "byteOffset" : 0, "componentType" : 5126, "count" : 1680, "type" : "VEC3", "max" : [75.4412612915039, 46.00162124633789, 21.428979873657227], "min" : [-75.4412612915039, -70.489013671875, -22.934898376464844], "name" : "POSITION"}, {"bufferView" : 3, "byteOffset" : 12, "componentType" : 5126, "count" : 1680, "type" : "VEC3", "max" : [1.0000044107437134, 1.0000044107437134, 1.0000044107437134], "min" : [-1.0000044107437134, -1.0000044107437134, -1.0000044107437134], "name" : "NORMAL"}, {"bufferView" : 3, "byteOffset" : 24, "componentType" : 5126, "count" : 1680, "type" : "VEC2", "max" : [0.999500036239624, -0.0005000000237487257], "min" : [0.0005000000237487257, -0.9098131060600281], "name" : "TEXCOORD_0"}], "asset" : {"generator" : "Aspose.3D 22.1", "version" : "2.0"}, "buffers" : [{"uri" : "data:application/octet-stream;base64,", "byteLength" : 124864}], "bufferViews" : [{"buffer" : 0, "byteOffset" : 0, "byteLength" : 7344, "target" : 34963}, {"buffer" : 0, "byteOffset" : 7348, "byteLength" : 60288, "byteStride" : 32, "target" : 34962}, {"buffer" : 0, "byteOffset" : 67640, "byteLength" : 3456, "byteStride" : 32, "target" : 34962}, {"buffer" : 0, "byteOffset" : 71100, "byteLength" : 53760, "byteStride" : 32, "target" : 34962}], "materials" : [{"name" : "", "pbrMetallicRoughness" : {"baseColorFactor" : [0.5882353186607361, 0.5882353186607361, 0.5882353186607361, 1], "metallicFactor" : 0, "roughnessFactor" : 0}, "emissiveFactor" : [0, 0, 0], "alphaMode" : "OPAQUE", "doubleSided" : false}, {"name" : "", "pbrMetallicRoughness" : {"baseColorFactor" : [0.5882353186607361, 0.5882353186607361, 0.5882353186607361, 1], "metallicFactor" : 0, "roughnessFactor" : 0}, "emissiveFactor" : [0, 0, 0], "alphaMode" : "OPAQUE", "doubleSided" : false}, {"name" : "", "pbrMetallicRoughness" : {"baseColorFactor" : [0.5882353186607361, 0.5882353186607361, 0.5882353186607361, 1], "metallicFactor" : 0, "roughnessFactor" : 0}, "emissiveFactor" : [0, 0, 0], "alphaMode" : "OPAQUE", "doubleSided" : false}], "meshes" : [{"primitives" : [{"attributes" : {"POSITION" : 1, "NORMAL" : 2, "TEXCOORD_0" : 3}, "indices" : 0, "material" : 0, "mode" : 4}], "name" : ""}, {"primitives" : [{"attributes" : {"POSITION" : 5, "NORMAL" : 6, "TEXCOORD_0" : 7}, "indices" : 4, "material" : 1, "mode" : 4}], "name" : ""}, {"primitives" : [{"attributes" : {"POSITION" : 9, "NORMAL" : 10, "TEXCOORD_0" : 11}, "indices" : 8, "material" : 2, "mode" : 4}], "name" : ""}], "nodes" : [{"matrix" : [1.0735061549483554E-07, 0.6589133739471348, 3.657703994947823E-17, 0, 3.657703994947823E-17, 0, -0.6589133739471436, 0, -0.3891966342925974, 6.34081806592933E-08, 0, 0, 40.00697326660156, 3.3576107025146484, 8.569732666015625, 1], "mesh" : 0, "name" : "Mouse001"}, {"matrix" : [0.46044445037841797, 0, 0, 0, 0, 0.0659260372871937, -0.45570039443903376, 0, 0, 0.45570039443903376, 0.0659260372871937, 0, -10.409378051757812, 2.7117691040039062, 15.912506103515625, 1], "mesh" : 1, "name" : "Keyboard001"}, {"matrix" : [0.46044445037841797, 0, 0, 0, 0, 0.4604444503784118, 7.501592605174381E-08, 0, 0, -7.501592605174381E-08, 0.4604444503784118, 0, 0.3000030517578125, 32.74362531635366, -9.949203477954553, 1], "mesh" : 2, "name" : "Monitor001"}], "scene" : 0, "scenes" : [{"nodes" : [0, 1, 2]}]}